<svg width="640" height="186" fill="none" xmlns="http://www.w3.org/2000/svg"><path fill-rule="evenodd" clip-rule="evenodd" d="M184.976 152.606l.001.107c0 18.298-41.409 33.13-92.489 33.13-51.08 0-92.488-14.832-92.488-33.13v-.107c0-51.08 41.408-92.489 92.488-92.489s92.488 41.409 92.488 92.489zM68.788 130.061c0 8.779-6.211 15.896-13.873 15.896-7.662 0-13.873-7.117-13.873-15.896s6.21-15.896 13.873-15.896c7.662 0 13.873 7.117 13.873 15.896zm61.273 15.896c7.662 0 13.874-7.117 13.874-15.896s-6.212-15.896-13.874-15.896c-7.661 0-13.873 7.117-13.873 15.896s6.212 15.896 13.873 15.896z" fill="#100E06"/><path d="M89.025 56.65a1.35 1.35 0 01-1.309-1.677l4.978-19.904H70.138a1.35 1.35 0 01-.995-2.26L98.823.437a1.349 1.349 0 012.304 1.238L96.15 21.581h22.556c.535 0 1.02.316 1.236.805.215.49.12 1.06-.241 1.455l-29.68 32.37a1.352 1.352 0 01-.996.438z" fill="#EFD358"/><path d="M560.649 85.026l15.447 1.587c-.318 1.481-1.058 2.54-3.915 2.962v91.307c0 1.058-4.761 3.386-9.205 3.386h-2.327V85.026zm-13.331 7.406l14.495 2.75c-.318 1.376-1.482 2.328-3.809 2.54-2.751 13.014-7.195 25.075-13.755 33.222l-1.587-.741c2.751-10.368 4.444-24.757 4.656-37.771zm-4.656 49.833c7.089-1.376 25.393-6.031 43.168-11.11l.317 1.27c-7.512 4.973-19.15 12.167-35.549 20.949-.424 1.269-1.482 2.433-2.645 2.856l-5.291-13.965zm8.782-31.635h21.266l5.396-8.57s6.031 6.031 9.416 9.839c-.211 1.164-1.269 1.693-2.75 1.693h-33.328v-2.962z" fill="#100E06"/><path d="M560.649 85.026l15.447 1.587c-.318 1.481-1.058 2.54-3.915 2.962v91.307c0 1.058-4.761 3.386-9.205 3.386h-2.327V85.026zm-13.331 7.406l14.495 2.75c-.318 1.376-1.482 2.328-3.809 2.54-2.751 13.014-7.195 25.075-13.755 33.222l-1.587-.741c2.751-10.368 4.444-24.757 4.656-37.771zM576.836 122.797a22.232 22.232 0 002.088-3.329l-.058.109.086-.166c5.149-9.31 10.863-22.394 14.178-34.385l10.897 2.75c-1.622 5.573-3.068 10.017-4.337 13.332H640c-.071 10.58-.353 21.83-.846 33.75-.494 11.85-1.164 22.325-2.011 31.423-.493 5.432-1.904 9.311-4.232 11.639-2.257 2.398-5.643 3.667-10.157 3.809-3.597.07-7.653-.071-12.167-.424l-2.116-11.532c4.373.494 8.076.705 11.109.635 2.328-.071 3.88-.741 4.655-2.01.847-1.27 1.482-3.739 1.905-7.407.776-7.265 1.375-15.27 1.799-24.017.493-8.746.74-16.963.74-24.651h-33.751c-2.398 5.36-5.431 10.968-9.099 16.822l-8.993-6.348z" fill="#100E06"/><path fill-rule="evenodd" clip-rule="evenodd" d="M618.879 140.014c-5.625-1.122-10.045-6.274-10.923-12.77-.75-.15-1.521-.228-2.308-.228-7.396 0-13.391 6.883-13.391 15.374s5.995 15.375 13.391 15.375c7.395 0 13.39-6.884 13.39-15.375 0-.808-.054-1.601-.159-2.376z" fill="#100E06"/><path d="M466.63 131.142c-.423 1.481-2.328 2.645-6.137 1.798l3.28-.952c-5.501 9.734-16.822 23.7-25.18 30.471l-.212-1.27h7.089c-.529 7.512-2.54 12.802-5.925 14.283l-6.666-15.976s2.963-.529 4.021-1.375c4.867-5.608 11.32-22.747 13.013-32.27l16.717 5.291zm-30.577 29.518c7.195-.529 23.806-2.327 40.522-4.338l.212 1.27c-6.877 3.491-19.679 9.628-35.444 15.553l-5.29-12.485zm28.355-21.054c25.71 16.399 13.754 38.406 3.809 27.825.635-8.993-2.116-19.467-5.079-27.296l1.27-.529zm9.734-24.546s7.194 5.713 11.426 9.733c-.317 1.164-1.375 1.693-2.856 1.693h-49.304l-.846-3.068h35.232l6.348-8.358zm-5.713-23.17s7.194 5.712 11.426 9.733c-.211 1.164-1.269 1.693-2.857 1.693h-39.146l-.847-3.069h25.075l6.349-8.358z" fill="#100E06"/><path fill-rule="evenodd" clip-rule="evenodd" d="M530.032 103.435c-.071 10.228-.283 21.549-.635 33.963-.353 12.414-.847 22.183-1.481 29.307-.353 3.667-.988 6.524-1.905 8.57-.917 2.045-2.363 3.526-4.338 4.443-1.904.988-4.514 1.552-7.829 1.693-4.373.141-8.394-.035-12.061-.529l-2.54-12.802c4.021.705 7.512 1.058 10.475 1.058 2.327 0 3.914-.564 4.761-1.693.846-1.199 1.446-3.526 1.798-6.983.565-5.431.953-12.308 1.164-20.631.282-8.393.423-16.329.423-23.805h-34.703v-12.591h11.533l.423-18.41h11.85c0 4.938-.106 11.075-.318 18.41h23.383z" fill="#100E06"/><path fill-rule="evenodd" clip-rule="evenodd" d="M512.085 138.943c-5.625-1.122-10.046-6.274-10.924-12.771a11.83 11.83 0 00-2.308-.227c-7.395 0-13.39 6.883-13.39 15.374s5.995 15.374 13.39 15.374c7.395 0 13.391-6.883 13.391-15.374 0-.808-.055-1.602-.159-2.376z" fill="#100E06"/><path d="M372.529 137.596a.767.767 0 01-.362-.09.75.75 0 01-.38-.849l2.825-11.152H361.81a.767.767 0 01-.701-.451.75.75 0 01.137-.816l16.844-18.137a.774.774 0 01.928-.155.753.753 0 01.38.849l-2.825 11.153h12.801c.304 0 .579.177.701.451a.749.749 0 01-.136.815l-16.845 18.137a.767.767 0 01-.565.245z" fill="#EFD358"/><path fill-rule="evenodd" clip-rule="evenodd" d="M340.135 148.957h32.627l-5.29 6.348c2.045 1.552 4.408 3.527 7.089 5.925 2.68 2.398 4.972 4.55 6.877 6.454l6.877-9.416c-2.116-1.975-5.925-5.079-11.427-9.311h34.426c.913 0 1.653-.74 1.653-1.653V95.911c0-.913-.74-1.653-1.653-1.653h-32.31c1.199-3.527 1.905-5.749 2.116-6.666l-14.283-2.01c-.635 2.54-1.516 5.431-2.645 8.676h-24.057c-.913 0-1.653.74-1.653 1.653v51.393c0 .913.74 1.653 1.653 1.653zm60.585-45.085h-50.256v35.378h50.256v-35.378z" fill="#100E06"/><path d="M401.54 156.892l.008-.004.054.093-.062-.089zM391.066 157.95c-.212 4.232-.318 7.265-.318 9.099-.07 2.046-.564 3.386-1.481 4.021-.846.564-2.645.952-5.396 1.164a84.497 84.497 0 01-7.406.317c-2.469 0-4.973-.106-7.512-.317-2.116-.142-3.562-.6-4.338-1.376-.705-.846-1.058-2.257-1.058-4.232v-13.648h-12.59v16.187c0 3.668.423 6.454 1.27 8.359.846 1.904 2.186 3.244 4.02 4.02 1.834.846 4.514 1.411 8.041 1.693 4.232.353 8.006.529 11.321.529 3.456 0 7.229-.176 11.32-.529 3.668-.282 6.454-.741 8.359-1.376 1.975-.564 3.527-1.622 4.655-3.174 1.129-1.481 1.869-3.703 2.222-6.665.423-2.68.846-6.242 1.27-10.686l-12.379-3.386zM413.191 176.73c11.85 8.57 21.267-16.188-11.849-23.594l-.953.741c5.82 5.607 11.639 14.812 12.802 22.853zM341.218 152.806c4.549 12.802.423 21.689-4.761 24.651-3.492 2.116-8.147 1.376-9.522-2.221-1.058-3.492 1.058-6.349 4.126-7.936 4.126-2.01 8.676-7.935 8.57-14.494h1.587zM282.773 101.748c11.638 8.253 22.007-14.706-7.935-17.774l-.846.634c4.02 4.233 7.935 11.004 8.781 17.14zM315.677 135.816c-4.02-3.808-10.897-9.416-10.897-9.416l-6.031 8.147h-39.781l.846 2.962h53.007c1.375 0 2.539-.529 2.856-1.693zM315.783 120.687c-4.02-3.915-10.897-9.522-10.897-9.522l-6.031 8.146h-40.522l.846 3.069h53.642c1.587 0 2.645-.529 2.962-1.693z" fill="#100E06"/><path d="M322.449 105.875c-4.338-4.127-11.744-10.157-11.744-10.157l-6.56 8.887h-52.372l.847 2.962h66.972c1.481 0 2.539-.529 2.857-1.692z" fill="#100E06"/><path d="M254.015 87.57c-2.116 8.465-4.444 15.977-6.983 22.537v73.003h-12.379v-48.881c-2.469 3.668-4.867 6.983-7.194 9.946l-5.608-13.754c3.95-5.432 7.794-12.485 11.533-21.161 3.808-8.676 6.524-16.822 8.146-24.44l12.485 2.75zM291.496 147.937h16.146a5 5 0 015 5v25.212a5 5 0 01-5 5h-20.757l19.338-20.866c.274-.297.347-.726.183-1.095a1.028 1.028 0 00-.94-.606h-14.597a2 2 0 01-1.939-2.49l2.566-10.155z" fill="#100E06"/><path fill-rule="evenodd" clip-rule="evenodd" d="M258.915 152.937a5 5 0 015-5H287.3l-19.552 21.098a1.007 1.007 0 00-.183 1.095c.164.369.533.607.94.607h14.597a2 2 0 011.939 2.49l-2.508 9.922h-18.618a5 5 0 01-5-5v-25.212zm23.873 27.237h.02-.02z" fill="#100E06"/><path d="M228.82 1.162h9.213v44.465h-9.213V1.162zM267.844 10.833c9.938 0 14.908 5.614 14.908 21.455v13.34h-9.157v-13.34c0-8.06-2.01-12.006-9.101-12.006-6.644 0-9.715 4.669-9.715 12.006v13.34h-9.492V11.721h9.492l-1.675 11.84h1.116c1.396-12.118 6.31-12.73 13.624-12.73zM314.883 8.943c-7.593-.055-9.994-.055-10.72 2.78h10.72v9.448h-11.111v24.456h-9.212V21.171h-6.198v-9.449h6.309c.503-7.448 3.518-10.56 20.212-10.56v7.781zM335.984 46.461c-9.603 0-17.197-8.004-17.197-17.953 0-9.727 7.594-17.786 17.197-17.786 9.548 0 17.085 8.06 17.085 17.786 0 9.95-7.537 17.953-17.085 17.953zm-.056-9.115c5.137 0 7.929-4.002 7.929-8.782 0-4.725-2.792-8.727-7.929-8.727-5.025 0-7.928 4.002-7.928 8.727 0 4.78 2.903 8.782 7.928 8.782zM367.523 23.561c1.396-11.06 6.03-11.839 14.74-11.839v10.505c-10.162-2.612-14.182 2.724-14.182 10.06v13.34h-9.436v-33.96h9.436l-1.675 11.894h1.117zM387.871 45.627v-33.96h9.492l-1.675 11.894h1.507c2.401-11.394 9.771-12.728 14.35-12.728 6.644 0 11.446 3.057 10.999 12.728h1.507c2.401-11.394 9.771-12.728 14.35-12.728 7.705 0 12.674 3.946 12.674 21.455v13.34h-9.157v-13.34c0-8.06-2.01-12.006-7.984-12.006-6.644 0-9.715 4.669-9.715 12.006v13.34h-9.157v-13.34c0-8.06-2.01-12.006-7.984-12.006-6.644 0-9.715 4.669-9.715 12.006v13.34h-9.492zM472.65 11.611c12.34 0 18.147 4.447 18.147 16.841v17.175h-9.101l1.34-12.506h-.782c-1.061 9.227-5.472 13.285-13.233 13.285-7.928 0-12.339-3.002-12.339-10.117 0-5.502 4.411-10.727 14.126-10.727h10.441c-.949-3.168-3.294-4.502-8.599-4.502-3.294 0-5.415 1-7.816 3.669l-7.426-4.836c4.411-5.948 9.436-8.282 15.242-8.282zm-1.842 25.29c6.7 0 9.603-1.112 10.441-5.947h-10.441c-3.35 0-4.523 1.167-4.523 2.834 0 1.557 1.173 3.113 4.523 3.113zM520.593 11.722h9.492l-7.761 33.905h-19.207l-8.431-33.905h9.492l7.091 28.514h2.792l6.532-28.514zM551.196 46.461c-9.604 0-17.197-8.004-17.197-17.953 0-9.727 7.593-17.786 17.197-17.786 9.547 0 17.085 8.06 17.085 17.786 0 9.95-7.538 17.953-17.085 17.953zm-.056-9.115c5.137 0 7.928-4.002 7.928-8.782 0-4.725-2.791-8.727-7.928-8.727-5.025 0-7.928 4.002-7.928 8.727 0 4.78 2.903 8.782 7.928 8.782zM582.735 23.561c1.396-11.06 6.03-11.839 14.74-11.839v10.505c-10.162-2.612-14.182 2.724-14.182 10.06v13.34h-9.436v-33.96h9.436l-1.675 11.894h1.117zM610.283 31.51c.893 3.446 3.853 5.891 8.431 5.891 3.741 0 7.091-1.112 9.827-4.28l6.03 3.947c-3.518 6.892-9.771 9.393-15.857 9.393-9.436 0-17.867-7.781-17.867-17.453 0-9.56 8.431-17.397 17.867-17.397 9.771 0 16.75 7.56 16.639 19.898h-25.07zm8.431-11.006c-4.243 0-7.091 2.501-8.208 5.503h16.025c-1.173-3.724-4.634-5.503-7.817-5.503z" fill="#100E06"/></svg>
